<?xml version="1.0" encoding="UTF-8" standalone="no"?>
<svg
   xmlns:dc="http://purl.org/dc/elements/1.1/"
   xmlns:cc="http://creativecommons.org/ns#"
   xmlns:rdf="http://www.w3.org/1999/02/22-rdf-syntax-ns#"
   xmlns:svg="http://www.w3.org/2000/svg"
   xmlns="http://www.w3.org/2000/svg"
   xmlns:xlink="http://www.w3.org/1999/xlink"
   xmlns:sodipodi="http://sodipodi.sourceforge.net/DTD/sodipodi-0.dtd"
   xmlns:inkscape="http://www.inkscape.org/namespaces/inkscape"
   xmlns:svidget="http://www.svidget.org/svidget"
   svidget:version="0.3.0"
   version="1.1"
   id="ubkSilo"
   x="0px"
   y="0px"
   width="220"
   height="240"
   viewBox="0 0 219.99999 240"
   enable-background="new 0 0 595.28 841.89"
   xml:space="preserve"
   sodipodi:docname="silo.svg"
   inkscape:version="0.48.4 r9939"><metadata
     id="metadata259"><rdf:RDF><cc:Work
         rdf:about=""><dc:format>image/svg+xml</dc:format><dc:type
           rdf:resource="http://purl.org/dc/dcmitype/StillImage" /><dc:title></dc:title></cc:Work></rdf:RDF></metadata><defs
     id="defs257"><defs
       id="defs187"><polygon
         id="SVGID_9_"
         points="358.311,277.22 367.311,277.22 392.775,225.764 392.775,138.086 332.311,138.091 332.311,225.764 " /></defs><clipPath
       id="SVGID_10_"><use
         xlink:href="#SVGID_9_"
         overflow="visible"
         id="use191"
         style="overflow:visible"
         x="0"
         y="0"
         width="595.28003"
         height="841.89001" /></clipPath><defs
       id="defs241"><polygon
         id="SVGID_13_"
         points="472.483,277.22 481.483,277.22 506.948,225.764 506.948,138.086 446.483,138.091 446.483,225.764 " /></defs><clipPath
       id="SVGID_14_"><use
         xlink:href="#SVGID_13_"
         overflow="visible"
         id="use245"
         style="overflow:visible"
         x="0"
         y="0"
         width="595.28003"
         height="841.89001" /></clipPath><defs
       id="defs149"><polygon
         id="SVGID_7_"
         points="493.717,433.08 433.252,433.085 433.252,520.757 459.252,572.214 468.252,572.214 493.717,520.757 " /></defs><clipPath
       id="SVGID_8_"><use
         xlink:href="#SVGID_7_"
         overflow="visible"
         id="use153"
         style="overflow:visible"
         x="0"
         y="0"
         width="595.28003"
         height="841.89001" /></clipPath><clipPath
       id="SVGID_4_"><use
         height="1052.3622"
         width="744.09448"
         y="0"
         x="0"
         style="overflow:visible"
         xlink:href="#SVGID_3_"
         overflow="visible"
         id="use19" /></clipPath><clipPath
       id="SVGID_6_"><use
         height="1052.3622"
         width="744.09448"
         y="0"
         x="0"
         style="overflow:visible"
         xlink:href="#SVGID_5_"
         overflow="visible"
         id="use27" /></clipPath><clipPath
       id="SVGID_16_"><use
         height="1052.3622"
         width="744.09448"
         y="0"
         x="0"
         style="overflow:visible"
         xlink:href="#SVGID_15_"
         overflow="visible"
         id="use73" /></clipPath><clipPath
       id="SVGID_18_"><use
         height="1052.3622"
         width="744.09448"
         y="0"
         x="0"
         style="overflow:visible"
         xlink:href="#SVGID_17_"
         overflow="visible"
         id="use81" /></clipPath><clipPath
       id="SVGID_20_"><use
         height="1052.3622"
         width="744.09448"
         y="0"
         x="0"
         style="overflow:visible"
         xlink:href="#SVGID_19_"
         overflow="visible"
         id="use91" /></clipPath><clipPath
       id="SVGID_22_"><use
         height="1052.3622"
         width="744.09448"
         y="0"
         x="0"
         style="overflow:visible"
         xlink:href="#SVGID_21_"
         overflow="visible"
         id="use99" /></clipPath><clipPath
       id="SVGID_28_"><use
         height="1052.3622"
         width="744.09448"
         y="0"
         x="0"
         style="overflow:visible"
         xlink:href="#SVGID_27_"
         overflow="visible"
         id="use127" /></clipPath><clipPath
       id="SVGID_30_"><use
         height="1052.3622"
         width="744.09448"
         y="0"
         x="0"
         style="overflow:visible"
         xlink:href="#SVGID_29_"
         overflow="visible"
         id="use135" /></clipPath><clipPath
       id="SVGID_24_"><use
         height="1052.3622"
         width="744.09448"
         y="0"
         x="0"
         style="overflow:visible"
         xlink:href="#SVGID_23_"
         overflow="visible"
         id="use109" /></clipPath><clipPath
       id="SVGID_26_"><use
         height="1052.3622"
         width="744.09448"
         y="0"
         x="0"
         style="overflow:visible"
         xlink:href="#SVGID_25_"
         overflow="visible"
         id="use117" /></clipPath><defs
       id="defs15"><path
         d="m 282.327,465.81 h 0.027 l 3.205,-9.2 h 0.911 l -3.653,10.11 h -1.036 l -3.695,-10.11 h 0.993 l 3.248,9.2 z m -4.208,-176.726 3.73,-9.421 h 0.991 l 3.756,9.421 h -0.925 l -1.004,-2.545 h -4.684 l -0.991,2.545 h -0.873 z m 3.129,121.318 h 0.029 l 2.128,-5.923 h 0.993 l 2.072,5.867 h 0.026 l 2.031,-5.867 h 0.924 l -2.619,7.029 h -0.797 l -2.155,-6.063 h -0.029 l -2.196,6.063 h -0.854 l -2.575,-7.029 h 0.924 l 2.098,5.923 z m 6.239,-160.25 h -1.928 l -0.358,2.467 h 1.818 v 1.08 h -1.98 l -0.559,4.069 h -1.061 l 0.558,-4.069 h -2.448 l -0.611,4.069 h -1.044 l 0.611,-4.069 h -1.962 v -1.08 h 2.124 l 0.359,-2.467 h -1.997 v -1.08 h 2.142 l 0.576,-3.763 h 1.061 l -0.557,3.763 h 2.43 l 0.54,-3.763 h 1.061 l -0.557,3.763 h 1.782 v 1.08 z m -5.664,91.953 c -1.61,0 -2.97,-1.176 -3.012,-2.842 h 0.98 c 0.029,1.554 1.177,2.002 2.535,2.002 1.134,0 2.436,-0.658 2.436,-1.947 0,-1.008 -0.728,-1.484 -1.582,-1.764 -1.64,-0.546 -4.129,-1.064 -4.129,-3.249 0,-1.765 1.624,-2.731 3.218,-2.731 1.331,0 3.067,0.462 3.29,2.409 h -0.979 c -0.027,-1.246 -1.161,-1.568 -2.197,-1.568 -1.051,0 -2.352,0.532 -2.352,1.765 0,2.871 5.711,1.568 5.711,5.055 0,2.199 -1.89,2.87 -3.919,2.87 z m -2.821,199.031 v -7.222 l 2.59,0.01 c 1.07,0 2.011,0.65 2.011,1.801 0,0.8 -0.58,1.45 -1.34,1.63 v 0.021 c 0.979,0.159 1.64,0.8 1.64,1.83 0,0.95 -0.58,1.931 -2.15,1.931 h -2.751 z m 1.351,-141.629 h -0.909 v -10.11 h 3.303 c 0.883,0 1.61,0.056 2.379,0.532 0.701,0.42 1.037,1.148 1.037,2.114 0,1.092 -0.771,1.876 -1.945,2.17 v 0.028 c 1.288,0.21 1.567,1.078 1.693,2.254 0.183,1.638 0.126,2.395 0.532,3.011 h -1.051 c -0.237,-0.672 -0.293,-1.387 -0.351,-2.101 -0.21,-2.311 -0.349,-2.717 -2.182,-2.717 h -2.507 v 4.819 z m 0.869,137.588 c 0.841,0 1.681,-0.33 1.681,-1.311 0,-1.05 -0.86,-1.26 -1.71,-1.271 h -1.54 v 2.581 h 1.569 z m -1.57,3.44 h 1.59 c 1.24,0.021 1.96,-0.31 1.96,-1.42 0,-1.23 -0.99,-1.421 -2.35,-1.421 h -1.2 v 2.841 z m 4.715,-254.779 -2.035,-5.311 -2.074,5.311 h 4.109 z m -2.068,108.094 c 1.288,0 2.884,-0.084 2.884,-1.807 0,-1.946 -1.819,-1.806 -2.787,-1.806 h -2.043 v 3.613 h 1.946 z m -0.23,-143.698 -0.397,2.467 h 2.468 l 0.359,-2.467 h -2.43 z m 5.937,32.381 2.258,5.468 2.18,-5.468 h 0.859 l -2.595,6.551 h -0.887 l -2.675,-6.551 h 0.86 z m 5.716,180.672 c 0,1.849 -1.036,3.725 -3.275,3.725 -2.24,0 -3.275,-1.876 -3.275,-3.725 0,-1.849 1.035,-3.725 3.275,-3.725 2.239,0 3.275,1.876 3.275,3.725 z m -3.276,-2.954 c -1.693,0 -2.366,1.652 -2.366,2.954 0,1.303 0.673,2.955 2.366,2.955 1.693,0 2.365,-1.652 2.365,-2.955 0.001,-1.302 -0.671,-2.954 -2.365,-2.954 z m -0.8,-127.416 h -0.979 v -1.05 h 0.979 v 1.05 z m -0.068,2.031 v 7.029 h -0.84 v -7.029 h 0.84 z m 0.142,61.322 c 0.029,1.498 0.715,2.758 2.436,2.758 0.995,0 1.821,-0.714 2.031,-1.68 h 0.882 c -0.436,1.68 -1.484,2.451 -3.178,2.451 -2.1,0 -3.08,-1.807 -3.08,-3.725 0,-1.904 1.05,-3.725 3.135,-3.725 2.353,0 3.206,1.722 3.206,3.921 h -5.432 z m 4.521,-0.77 c -0.097,-1.358 -0.825,-2.381 -2.28,-2.381 -1.372,0 -2.101,1.148 -2.212,2.381 h 4.492 z m 0.03,-137.38 c -2.069,0 -3.814,-1.512 -3.868,-3.655 h 1.26 c 0.036,1.999 1.512,2.575 3.258,2.575 1.457,0 3.132,-0.846 3.132,-2.502 0,-1.296 -0.937,-1.909 -2.034,-2.269 -2.105,-0.702 -5.31,-1.369 -5.31,-4.177 0,-2.268 2.088,-3.511 4.139,-3.511 1.711,0 3.943,0.594 4.231,3.097 h -1.261 c -0.037,-1.602 -1.493,-2.016 -2.825,-2.016 -1.351,0 -3.024,0.684 -3.024,2.269 0,3.69 7.343,2.016 7.343,6.499 0,2.825 -2.429,3.69 -5.041,3.69 z m -2.226,150.152 c 0.026,1.499 0.713,2.759 2.436,2.759 0.993,0 1.818,-0.714 2.028,-1.68 h 0.883 c -0.434,1.68 -1.484,2.45 -3.178,2.45 -2.101,0 -3.08,-1.806 -3.08,-3.725 0,-1.904 1.051,-3.725 3.137,-3.725 2.352,0 3.205,1.723 3.205,3.921 h -5.431 z m 4.52,-0.77 c -0.099,-1.358 -0.826,-2.38 -2.282,-2.38 -1.371,0 -2.099,1.148 -2.212,2.38 h 4.494 z m -2.831,-65.524 h -0.841 v -10.11 h 0.841 v 10.11 z m 5.221,-57.432 c -0.078,-1.07 -0.626,-1.409 -1.552,-1.409 -0.822,0 -1.5,0.248 -1.604,1.135 h -0.836 c 0.196,-1.344 1.2,-1.853 2.452,-1.853 1.449,0 2.35,0.666 2.323,2.166 v 3.106 c -0.013,0.509 0.039,1.031 0.065,1.474 h -0.809 l -0.026,-0.965 h -0.026 l -0.04,0.091 c -0.288,0.548 -1.16,1.07 -2.048,1.07 -1.212,0 -2.18,-0.744 -2.18,-2.022 0,-0.887 0.537,-1.566 1.319,-1.892 0.874,-0.378 2.008,-0.248 2.961,-0.3 v -0.601 z m -1.956,4.098 c 1.709,0 2.035,-1.409 1.956,-2.779 -1.108,0.039 -3.432,-0.169 -3.432,1.475 0,0.886 0.68,1.304 1.476,1.304 z m 0.362,178.158 h -0.84 v -10.11 h 0.84 v 10.11 z m 5.722,-128.339 c 0,1.848 -1.034,3.725 -3.273,3.725 -2.239,0 -3.275,-1.876 -3.275,-3.725 0,-1.849 1.036,-3.725 3.275,-3.725 2.239,0 3.273,1.876 3.273,3.725 z m -3.273,-2.955 c -1.693,0 -2.365,1.652 -2.365,2.955 0,1.303 0.672,2.955 2.365,2.955 1.693,0 2.365,-1.652 2.365,-2.955 0,-1.303 -0.672,-2.955 -2.365,-2.955 z m -0.92,58.088 0.027,0.028 c 0.489,-0.868 1.288,-1.274 2.196,-1.274 1.106,0 1.976,0.616 2.283,1.54 0.518,-0.826 1.33,-1.54 2.422,-1.54 2.294,0 2.478,2.03 2.478,2.843 v 4.396 h -0.84 v -4.537 c 0,-1.218 -0.7,-1.933 -1.848,-1.933 -1.386,0 -2.017,1.162 -2.017,2.422 v 4.047 h -0.839 v -4.537 c 0,-1.218 -0.701,-1.933 -1.849,-1.933 -1.385,0 -2.015,1.162 -2.015,2.422 v 4.047 h -0.841 v -5.447 c 0,-0.546 -0.042,-1.106 -0.069,-1.583 h 0.868 l 0.044,1.039 z m 2.421,8.935 h -0.979 v -1.05 h 0.979 v 1.05 z m -0.071,2.03 v 7.029 h -0.839 v -7.029 h 0.839 z m 4.127,55.211 h 0.84 v 5.447 c 0,0.546 0.042,1.106 0.07,1.582 h -0.868 l -0.042,-1.036 -0.027,-0.028 c -0.49,0.868 -1.288,1.274 -2.198,1.274 -2.296,0 -2.478,-2.03 -2.478,-2.843 v -4.396 h 0.84 v 4.537 c 0,1.218 0.699,1.933 1.848,1.933 1.386,0 2.016,-1.163 2.016,-2.423 v -4.047 z m -1.755,-179.049 h -0.913 v -0.979 h 0.913 v 0.979 z m -0.064,1.892 v 6.55 h -0.784 v -6.55 h 0.784 z m 0.085,-24.765 v -13.053 h 1.169 v 13.053 h -1.169 z m 5.796,146.711 h 0.868 c -0.027,0.476 -0.069,1.037 -0.069,1.583 v 4.215 c 0,1.4 0.069,2.871 -1.484,3.599 -0.56,0.266 -0.938,0.322 -1.596,0.322 -1.273,0 -2.786,-0.434 -2.786,-1.891 h 0.911 c 0.098,0.84 1.091,1.121 1.986,1.121 1.093,0 2.101,-0.771 2.128,-1.947 v -1.316 h -0.027 c -0.406,0.826 -1.372,1.316 -2.281,1.316 -2.114,0 -3.024,-1.61 -3.024,-3.542 0,-1.904 0.854,-3.669 2.995,-3.669 1.021,0 1.75,0.49 2.311,1.302 l 0.027,-0.056 0.041,-1.037 z m -2.296,0.561 c -1.524,0 -2.169,1.54 -2.169,2.829 0,1.288 0.658,2.842 2.198,2.842 1.609,0 2.225,-1.498 2.225,-2.871 0,-1.344 -0.741,-2.8 -2.254,-2.8 z m 0.288,-115.957 h -0.782 v -9.421 h 0.782 v 9.421 z m 2.901,171.644 0.028,0.028 c 0.49,-0.868 1.288,-1.274 2.197,-1.274 1.106,0 1.974,0.616 2.281,1.54 0.519,-0.826 1.33,-1.54 2.423,-1.54 2.295,0 2.477,2.03 2.477,2.843 v 4.396 h -0.84 v -4.537 c 0,-1.218 -0.699,-1.933 -1.848,-1.933 -1.386,0 -2.016,1.163 -2.016,2.423 v 4.047 h -0.84 v -4.537 c 0,-1.218 -0.699,-1.933 -1.848,-1.933 -1.386,0 -2.016,1.163 -2.016,2.423 v 4.047 h -0.84 v -5.447 c 0,-0.546 -0.042,-1.106 -0.07,-1.582 h 0.868 l 0.044,1.036 z M 309.86,257.768 v -12.999 h 1.17 v 11.918 h 6.533 v 1.081 h -7.703 z m 4.345,26.696 c -0.078,-1.07 -0.628,-1.409 -1.553,-1.409 -0.821,0 -1.501,0.248 -1.606,1.135 h -0.833 c 0.194,-1.344 1.2,-1.853 2.452,-1.853 1.448,0 2.347,0.666 2.321,2.166 v 3.105 c -0.012,0.509 0.04,1.031 0.066,1.475 h -0.811 l -0.026,-0.965 h -0.024 l -0.039,0.091 c -0.287,0.548 -1.162,1.07 -2.048,1.07 -1.213,0 -2.18,-0.744 -2.18,-2.022 0,-0.888 0.535,-1.566 1.318,-1.892 0.874,-0.378 2.009,-0.248 2.962,-0.3 v -0.601 z m 1.043,52.558 c -0.069,-1.078 -0.755,-1.597 -1.918,-1.597 -1.288,0 -2.085,1.345 -2.085,2.941 0,1.61 0.797,2.969 2.085,2.969 1.093,0 1.849,-0.672 1.918,-1.639 h 0.911 c -0.225,1.61 -1.148,2.409 -2.745,2.409 -2.099,0 -3.08,-1.807 -3.08,-3.725 0,-1.905 1.052,-3.725 3.138,-3.725 1.44,0 2.617,0.868 2.688,2.367 h -0.912 z m -3.002,-48.46 c 1.711,0 2.037,-1.409 1.959,-2.779 -1.11,0.039 -3.432,-0.17 -3.432,1.475 0,0.886 0.679,1.304 1.473,1.304 z m 3.285,105.988 c -0.084,-1.148 -0.671,-1.512 -1.666,-1.512 -0.881,0 -1.608,0.266 -1.721,1.218 h -0.896 c 0.21,-1.442 1.288,-1.988 2.632,-1.988 1.554,0 2.52,0.714 2.491,2.324 v 3.333 c -0.014,0.546 0.042,1.106 0.07,1.582 h -0.869 l -0.026,-1.036 h -0.028 l -0.042,0.098 c -0.308,0.588 -1.246,1.148 -2.198,1.148 -1.302,0 -2.337,-0.798 -2.337,-2.17 0,-0.952 0.573,-1.68 1.414,-2.03 0.938,-0.406 2.154,-0.266 3.176,-0.322 v -0.645 z m -2.098,4.397 c 1.834,0 2.183,-1.512 2.099,-2.982 -1.189,0.042 -3.681,-0.182 -3.681,1.582 0,0.952 0.728,1.4 1.582,1.4 z m 0.783,6.596 h 0.028 c 0.49,-0.868 1.287,-1.274 2.198,-1.274 2.295,0 2.478,2.031 2.478,2.843 v 4.397 h -0.84 v -4.537 c 0,-1.218 -0.7,-1.933 -1.848,-1.933 -1.387,0 -2.017,1.163 -2.017,2.423 v 4.047 h -0.839 v -10.11 h 0.839 v 4.144 z m 4.398,-116.46 h -0.81 c 0.026,-0.444 0.065,-0.966 0.065,-1.475 v -7.947 h 0.783 v 3.836 l 0.026,0.026 c 0.455,-0.77 1.369,-1.187 2.242,-1.187 1.943,0 2.688,1.749 2.688,3.445 0,1.644 -0.744,3.497 -2.647,3.497 -0.952,0 -1.748,-0.431 -2.282,-1.214 l -0.026,0.052 -0.039,0.967 z m 4.22,47.855 c -0.084,-1.148 -0.671,-1.513 -1.664,-1.513 -0.882,0 -1.61,0.266 -1.722,1.218 h -0.896 c 0.21,-1.442 1.287,-1.988 2.631,-1.988 1.554,0 2.52,0.714 2.492,2.325 v 3.333 c -0.015,0.546 0.042,1.106 0.069,1.583 h -0.869 l -0.026,-1.037 h -0.028 l -0.042,0.098 c -0.308,0.588 -1.245,1.148 -2.198,1.148 -1.301,0 -2.337,-0.798 -2.337,-2.17 0,-0.952 0.574,-1.681 1.414,-2.031 0.938,-0.406 2.154,-0.266 3.176,-0.322 v -0.644 z m -4.181,-51.26 c 0,1.487 0.521,2.884 2.23,2.884 1.499,0 1.877,-1.631 1.877,-2.845 0,-1.252 -0.509,-2.662 -1.996,-2.662 -1.524,0 -2.111,1.292 -2.111,2.623 z m 2.083,55.657 c 1.833,0 2.184,-1.513 2.098,-2.983 -1.189,0.042 -3.68,-0.182 -3.68,1.583 0,0.952 0.728,1.4 1.582,1.4 z m -0.208,49.112 h -0.979 v -1.05 h 0.979 v 1.05 z m -0.068,2.031 v 7.029 h -0.84 v -7.029 h 0.84 z m 5.96,-134.44 c -3.728,0 -5.797,-2.719 -5.797,-6.77 0,-4.051 2.069,-6.77 5.797,-6.77 3.726,0 5.795,2.719 5.795,6.77 0,4.051 -2.069,6.77 -5.795,6.77 z m -3.608,147.211 h -1.4 v -0.77 h 1.4 v -1.498 l 0.84,-0.364 v 1.862 h 1.596 v 0.77 h -1.596 v 4.705 c -0.015,0.645 0.321,0.994 0.965,0.994 0.253,0 0.505,-0.014 0.728,-0.084 v 0.729 c -0.265,0.07 -0.573,0.126 -0.854,0.126 -1.777,0 -1.679,-1.134 -1.679,-2.086 v -4.384 z m 3.608,-148.292 c 3.239,0 4.534,-2.844 4.534,-5.689 0,-2.845 -1.295,-5.689 -4.534,-5.689 -3.24,0 -4.536,2.845 -4.536,5.689 0,2.844 1.296,5.689 4.536,5.689 z m -2.94,206.444 c 0.028,1.498 0.714,2.759 2.436,2.759 0.993,0 1.819,-0.715 2.029,-1.681 h 0.882 c -0.434,1.681 -1.483,2.45 -3.177,2.45 -2.1,0 -3.08,-1.807 -3.08,-3.725 0,-1.904 1.05,-3.725 3.136,-3.725 2.352,0 3.205,1.723 3.205,3.921 h -5.431 z m 4.522,-0.77 c -0.099,-1.358 -0.826,-2.381 -2.282,-2.381 -1.372,0 -2.1,1.148 -2.211,2.381 h 4.493 z m -3.399,-63.124 h -0.841 v -5.447 c 0,-0.546 -0.042,-1.106 -0.069,-1.582 h 0.868 l 0.042,1.036 0.028,0.028 c 0.489,-0.868 1.287,-1.274 2.197,-1.274 2.296,0 2.478,2.03 2.478,2.842 v 4.397 h -0.84 v -4.537 c 0,-1.218 -0.699,-1.932 -1.848,-1.932 -1.386,0 -2.016,1.162 -2.016,2.422 v 4.047 z m 2.425,-110.424 h -0.784 v -9.421 h 0.784 v 9.421 z m 0.581,55.501 h -0.842 v -8.136 c 0.016,-0.546 -0.041,-1.106 -0.068,-1.583 h 0.868 l 0.042,1.036 0.027,0.028 c 0.488,-0.826 1.469,-1.274 2.408,-1.274 2.085,0 2.883,1.876 2.883,3.697 0,1.764 -0.798,3.753 -2.841,3.753 -1.024,0 -1.878,-0.462 -2.45,-1.302 h -0.027 v 3.781 z m 2.392,-3.249 c 1.611,0 2.017,-1.778 2.017,-3.081 0,-1.344 -0.545,-2.829 -2.143,-2.829 -1.636,0 -2.266,1.358 -2.266,2.787 0,1.597 0.558,3.123 2.392,3.123 z m 0.56,-55.344 c 0.026,1.396 0.666,2.571 2.272,2.571 0.926,0 1.693,-0.666 1.892,-1.566 h 0.821 c -0.406,1.566 -1.383,2.284 -2.963,2.284 -1.955,0 -2.868,-1.684 -2.868,-3.471 0,-1.775 0.977,-3.471 2.921,-3.471 2.192,0 2.988,1.605 2.988,3.654 h -5.063 z m 4.215,-0.718 c -0.093,-1.266 -0.77,-2.218 -2.126,-2.218 -1.278,0 -1.959,1.07 -2.063,2.218 h 4.189 z m -1.256,105.174 h -0.98 v -1.05 h 0.98 v 1.05 z m -0.072,2.031 v 7.029 h -0.839 v -7.029 h 0.839 z m 0.855,20.375 c -0.687,-1.834 -1.498,-3.71 -1.498,-5.727 0,-1.974 0.799,-3.907 1.513,-5.727 h 0.699 c -0.741,1.89 -1.231,3.921 -1.231,5.727 0,1.918 0.588,4.075 1.231,5.727 h -0.714 z m 5.414,-75.915 c -0.084,-1.148 -0.672,-1.512 -1.666,-1.512 -0.882,0 -1.609,0.266 -1.722,1.218 h -0.896 c 0.21,-1.442 1.289,-1.988 2.633,-1.988 1.554,0 2.518,0.714 2.491,2.324 v 3.333 c -0.016,0.546 0.042,1.106 0.068,1.582 h -0.866 l -0.029,-1.036 h -0.026 l -0.042,0.098 c -0.31,0.588 -1.247,1.148 -2.198,1.148 -1.302,0 -2.339,-0.798 -2.339,-2.171 0,-0.952 0.575,-1.68 1.414,-2.03 0.938,-0.406 2.157,-0.266 3.179,-0.322 v -0.644 z m -2.1,4.397 c 1.834,0 2.184,-1.512 2.1,-2.982 -1.189,0.042 -3.682,-0.182 -3.682,1.582 0,0.952 0.729,1.4 1.582,1.4 z m 3.122,120.428 c -0.084,-1.148 -0.672,-1.513 -1.665,-1.513 -0.883,0 -1.61,0.267 -1.723,1.219 h -0.896 c 0.21,-1.442 1.288,-1.988 2.632,-1.988 1.554,0 2.52,0.714 2.491,2.324 v 3.333 c -0.014,0.546 0.042,1.105 0.07,1.582 h -0.868 l -0.027,-1.036 h -0.028 l -0.042,0.098 c -0.308,0.589 -1.246,1.148 -2.197,1.148 -1.303,0 -2.338,-0.798 -2.338,-2.17 0,-0.953 0.573,-1.681 1.413,-2.031 0.938,-0.405 2.156,-0.266 3.178,-0.321 v -0.645 z m -3.147,-62.256 h -0.84 v -5.447 c 0,-0.546 -0.042,-1.106 -0.069,-1.583 h 0.867 l 0.042,1.037 0.028,0.028 c 0.49,-0.868 1.287,-1.274 2.197,-1.274 2.295,0 2.479,2.031 2.479,2.843 v 4.397 h -0.84 v -4.537 c 0,-1.218 -0.7,-1.932 -1.849,-1.932 -1.387,0 -2.016,1.162 -2.016,2.422 v 4.046 z m 1.048,66.652 c 1.834,0 2.184,-1.512 2.1,-2.982 -1.189,0.042 -3.682,-0.182 -3.682,1.583 0,0.952 0.728,1.399 1.582,1.399 z m 0.087,-58.809 3.401,-2.871 h 1.078 l -3.556,3.039 3.835,3.991 h -1.063 l -3.695,-3.809 v 3.809 h -0.841 v -10.11 h 0.841 v 5.951 z m 3.296,-149.583 v -1.224 c 1.621,-1.458 6.407,-5.977 6.407,-8.21 0,-1.458 -1.15,-2.214 -2.5,-2.214 -1.494,0 -2.52,1.026 -2.52,2.485 h -1.262 c 0,-2.197 1.655,-3.565 3.817,-3.565 1.997,0 3.726,1.062 3.726,3.223 0,2.917 -4.338,6.571 -6.265,8.426 h 6.427 v 1.08 h -7.83 z m 1.481,31.316 v -5.833 h -1.318 v -0.718 h 1.318 v -1.396 c 0,-1.123 0.456,-1.631 1.578,-1.631 0.247,0 0.509,0.091 0.743,0.144 v 0.626 c -0.156,-0.026 -0.326,-0.052 -0.482,-0.052 -1.071,0 -1.096,0.535 -1.057,1.475 v 0.835 h 1.487 v 0.718 h -1.487 v 5.833 h -0.782 z m 4.723,47.939 c -0.069,-1.078 -0.755,-1.596 -1.918,-1.596 -1.288,0 -2.085,1.344 -2.085,2.94 0,1.61 0.797,2.969 2.085,2.969 1.093,0 1.849,-0.672 1.918,-1.638 h 0.911 c -0.226,1.61 -1.148,2.409 -2.745,2.409 -2.099,0 -3.08,-1.807 -3.08,-3.725 0,-1.904 1.052,-3.725 3.138,-3.725 1.44,0 2.617,0.868 2.688,2.366 h -0.912 z m -3.691,122.668 2.422,5.867 2.337,-5.867 h 0.924 l -2.785,7.029 h -0.952 l -2.869,-7.029 h 0.923 z m 5.923,-55.211 h 0.868 c -0.028,0.476 -0.07,1.036 -0.07,1.582 v 4.215 c 0,1.4 0.07,2.87 -1.483,3.599 -0.56,0.266 -0.938,0.322 -1.596,0.322 -1.273,0 -2.786,-0.434 -2.786,-1.89 h 0.91 c 0.098,0.84 1.092,1.12 1.987,1.12 1.093,0 2.101,-0.77 2.128,-1.946 v -1.316 h -0.027 c -0.406,0.826 -1.372,1.316 -2.282,1.316 -2.113,0 -3.023,-1.61 -3.023,-3.543 0,-1.904 0.854,-3.668 2.995,-3.668 1.022,0 1.75,0.49 2.311,1.302 l 0.027,-0.056 0.041,-1.037 z m 0.01,-12.002 h 0.869 c -0.028,0.476 -0.07,1.037 -0.07,1.583 v 4.215 c 0,1.4 0.07,2.871 -1.484,3.599 -0.559,0.266 -0.938,0.322 -1.595,0.322 -1.273,0 -2.786,-0.434 -2.786,-1.891 h 0.91 c 0.099,0.84 1.091,1.121 1.987,1.121 1.093,0 2.101,-0.771 2.127,-1.947 v -1.316 H 350.4 c -0.406,0.826 -1.373,1.316 -2.283,1.316 -2.112,0 -3.023,-1.61 -3.023,-3.542 0,-1.904 0.854,-3.669 2.996,-3.669 1.021,0 1.75,0.49 2.311,1.302 l 0.026,-0.056 0.042,-1.037 z m -2.306,12.562 c -1.525,0 -2.169,1.541 -2.169,2.829 0,1.288 0.658,2.842 2.197,2.842 1.61,0 2.226,-1.498 2.226,-2.87 0,-1.345 -0.741,-2.801 -2.254,-2.801 z m 0.011,-12.001 c -1.525,0 -2.169,1.54 -2.169,2.828 0,1.289 0.658,2.843 2.197,2.843 1.61,0 2.225,-1.498 2.225,-2.871 0,-1.344 -0.74,-2.8 -2.253,-2.8 z M 348.2,285.991 c 0.026,1.396 0.665,2.57 2.271,2.57 0.927,0 1.694,-0.666 1.892,-1.566 h 0.822 c -0.406,1.566 -1.383,2.284 -2.963,2.284 -1.955,0 -2.868,-1.683 -2.868,-3.471 0,-1.774 0.977,-3.471 2.92,-3.471 2.193,0 2.989,1.605 2.989,3.654 H 348.2 z m 4.216,-0.718 c -0.093,-1.266 -0.77,-2.218 -2.127,-2.218 -1.278,0 -1.958,1.07 -2.062,2.218 h 4.189 z m 3.867,176.49 c -0.084,-1.148 -0.672,-1.513 -1.666,-1.513 -0.882,0 -1.609,0.267 -1.722,1.219 H 352 c 0.21,-1.442 1.287,-1.988 2.632,-1.988 1.553,0 2.52,0.714 2.491,2.324 v 3.333 c -0.014,0.546 0.042,1.105 0.07,1.582 h -0.868 l -0.028,-1.036 h -0.028 l -0.042,0.098 c -0.308,0.588 -1.245,1.148 -2.197,1.148 -1.302,0 -2.337,-0.798 -2.337,-2.171 0,-0.952 0.573,-1.68 1.413,-2.03 0.938,-0.406 2.156,-0.266 3.178,-0.322 v -0.644 z m -3.52,-128.928 h -0.979 v -1.05 h 0.979 v 1.05 z m -0.071,2.031 v 7.029 h -0.841 v -7.029 h 0.841 z m 1.492,131.293 c 1.833,0 2.184,-1.512 2.1,-2.982 -1.189,0.042 -3.682,-0.182 -3.682,1.582 0,0.953 0.727,1.4 1.582,1.4 z m -0.281,-53.306 c 0.644,-1.652 1.231,-3.809 1.231,-5.727 0,-1.807 -0.49,-3.837 -1.231,-5.727 h 0.699 c 0.714,1.82 1.512,3.752 1.512,5.727 0,2.017 -0.812,3.893 -1.497,5.727 h -0.714 z m 0.667,-165.582 c 1.062,-0.432 2.052,-1.152 2.86,-1.962 h 1.116 v 12.458 h -1.169 v -11.198 c -0.828,0.792 -1.802,1.386 -2.808,1.873 v -1.171 z m 2.028,88.365 h -1.399 v -0.77 h 1.399 v -1.499 l 0.839,-0.364 v 1.863 h 1.597 v 0.77 h -1.597 v 4.705 c -0.013,0.644 0.323,0.994 0.967,0.994 0.252,0 0.504,-0.014 0.729,-0.084 v 0.728 c -0.267,0.07 -0.575,0.126 -0.854,0.126 -1.779,0 -1.68,-1.134 -1.68,-2.086 v -4.383 z m -0.164,-49.645 c 0.026,1.396 0.665,2.57 2.27,2.57 0.927,0 1.696,-0.666 1.892,-1.566 h 0.822 c -0.404,1.566 -1.383,2.284 -2.962,2.284 -1.957,0 -2.869,-1.683 -2.869,-3.471 0,-1.774 0.979,-3.471 2.922,-3.471 2.191,0 2.987,1.605 2.987,3.654 h -5.062 z m 4.213,-0.718 c -0.092,-1.266 -0.771,-2.218 -2.127,-2.218 -1.278,0 -1.956,1.07 -2.061,2.218 h 4.188 z m 3.149,109.361 c -0.07,-1.079 -0.756,-1.597 -1.918,-1.597 -1.288,0 -2.085,1.344 -2.085,2.941 0,1.61 0.797,2.968 2.085,2.968 1.091,0 1.848,-0.672 1.918,-1.638 h 0.91 c -0.225,1.61 -1.148,2.409 -2.744,2.409 -2.101,0 -3.08,-1.807 -3.08,-3.725 0,-1.904 1.051,-3.725 3.137,-3.725 1.441,0 2.616,0.868 2.688,2.367 h -0.911 z m -2.516,63.026 h -0.979 v -1.051 h 0.979 v 1.051 z m -0.07,2.03 v 7.029 h -0.84 v -7.029 h 0.84 z m 0.788,-124.824 2.363,5.881 2.353,-5.881 h 0.911 l -3.878,9.718 h -0.925 l 1.063,-2.688 -2.91,-7.029 h 1.023 z m 6.723,-46.749 -0.026,-0.052 c -0.534,0.783 -1.331,1.213 -2.242,1.213 -1.943,0 -2.688,-1.853 -2.688,-3.497 0,-1.696 0.744,-3.445 2.688,-3.445 0.874,0 1.786,0.417 2.242,1.188 l 0.026,-0.026 v -3.836 h 0.784 v 7.947 c 0,0.509 0.038,1.031 0.064,1.475 h -0.809 l -0.039,-0.967 z m -3.354,178.603 h -0.84 v -10.11 h 0.84 v 10.11 z m 1.215,-183.665 c -1.487,0 -1.97,1.383 -1.97,2.636 0,1.213 0.352,2.871 1.853,2.871 1.709,0 2.229,-1.422 2.229,-2.91 0,-1.332 -0.587,-2.597 -2.112,-2.597 z m 6.872,112.937 c 0,1.849 -1.036,3.725 -3.276,3.725 -2.238,0 -3.275,-1.876 -3.275,-3.725 0,-1.848 1.037,-3.725 3.275,-3.725 2.24,0 3.276,1.877 3.276,3.725 z m -3.276,-2.955 c -1.693,0 -2.364,1.652 -2.364,2.955 0,1.303 0.671,2.955 2.364,2.955 1.694,0 2.366,-1.652 2.366,-2.955 0,-1.303 -0.672,-2.955 -2.366,-2.955 z m 2.468,68.726 c -0.084,-1.148 -0.672,-1.513 -1.665,-1.513 -0.882,0 -1.61,0.267 -1.722,1.219 h -0.896 c 0.21,-1.442 1.288,-1.988 2.632,-1.988 1.554,0 2.52,0.714 2.492,2.324 v 3.332 c -0.015,0.547 0.042,1.106 0.069,1.583 h -0.868 l -0.027,-1.036 h -0.028 l -0.042,0.098 c -0.308,0.588 -1.246,1.148 -2.197,1.148 -1.302,0 -2.338,-0.798 -2.338,-2.171 0,-0.952 0.574,-1.68 1.414,-2.03 0.938,-0.406 2.155,-0.266 3.177,-0.322 v -0.644 z m -2.099,4.396 c 1.833,0 2.183,-1.512 2.099,-2.982 -1.189,0.042 -3.681,-0.182 -3.681,1.582 0,0.952 0.727,1.4 1.582,1.4 z m 5.868,-122.92 c -0.686,-1.834 -1.498,-3.711 -1.498,-5.727 0,-1.975 0.797,-3.907 1.511,-5.728 h 0.701 c -0.743,1.891 -1.231,3.921 -1.231,5.728 0,1.918 0.587,4.075 1.231,5.727 h -0.714 z m 0.665,56.267 h -0.841 v -5.447 c 0,-0.546 -0.042,-1.106 -0.069,-1.583 h 0.868 l 0.042,1.036 0.027,0.028 c 0.49,-0.868 1.288,-1.274 2.197,-1.274 2.296,0 2.478,2.03 2.478,2.842 v 4.397 h -0.84 v -4.537 c 0,-1.218 -0.699,-1.933 -1.848,-1.933 -1.385,0 -2.015,1.162 -2.015,2.422 v 4.049 z m 0.297,67.214 h -0.867 c 0.027,-0.477 0.069,-1.036 0.069,-1.583 v -8.527 h 0.84 v 4.117 l 0.028,0.027 c 0.49,-0.826 1.47,-1.274 2.407,-1.274 2.086,0 2.884,1.877 2.884,3.697 0,1.765 -0.798,3.753 -2.842,3.753 -1.021,0 -1.875,-0.462 -2.449,-1.303 l -0.028,0.057 -0.042,1.036 z m 0.042,-3.656 c 0,1.597 0.561,3.095 2.394,3.095 1.61,0 2.016,-1.75 2.016,-3.053 0,-1.344 -0.546,-2.856 -2.142,-2.856 -1.638,0 -2.268,1.387 -2.268,2.814 z m 3.32,-127.163 0.029,0.028 c 0.488,-0.868 1.288,-1.274 2.196,-1.274 1.105,0 1.975,0.616 2.283,1.541 0.518,-0.826 1.329,-1.541 2.421,-1.541 2.295,0 2.478,2.03 2.478,2.843 v 4.397 h -0.84 v -4.537 c 0,-1.218 -0.7,-1.933 -1.848,-1.933 -1.387,0 -2.017,1.163 -2.017,2.423 v 4.047 h -0.839 v -4.537 c 0,-1.218 -0.701,-1.933 -1.849,-1.933 -1.385,0 -2.016,1.163 -2.016,2.423 v 4.047 H 379.9 v -5.447 c 0,-0.546 -0.042,-1.106 -0.069,-1.583 h 0.866 l 0.042,1.036 z m 4.934,57.346 h -1.398 v -0.77 h 1.398 v -1.499 l 0.841,-0.364 v 1.862 h 1.596 v 0.77 h -1.596 v 4.705 c -0.014,0.644 0.322,0.994 0.966,0.994 0.252,0 0.504,-0.014 0.729,-0.084 v 0.728 c -0.267,0.07 -0.575,0.126 -0.854,0.126 -1.777,0 -1.681,-1.134 -1.681,-2.086 v -4.382 z m 0.733,73.473 h -0.841 v -10.11 h 0.841 v 10.11 z m 3.793,-3.32 c 0.027,1.499 0.714,2.759 2.436,2.759 0.993,0 1.819,-0.714 2.029,-1.681 h 0.882 c -0.434,1.681 -1.483,2.451 -3.178,2.451 -2.1,0 -3.079,-1.807 -3.079,-3.725 0,-1.905 1.05,-3.726 3.136,-3.726 2.352,0 3.205,1.723 3.205,3.921 h -5.431 z m 4.521,-0.769 c -0.098,-1.358 -0.825,-2.381 -2.281,-2.381 -1.372,0 -2.1,1.148 -2.212,2.381 h 4.493 z m -3.447,-66.443 c 0.026,1.499 0.713,2.759 2.436,2.759 0.994,0 1.818,-0.714 2.028,-1.68 h 0.883 c -0.434,1.68 -1.484,2.45 -3.178,2.45 -2.101,0 -3.08,-1.806 -3.08,-3.725 0,-1.904 1.051,-3.725 3.137,-3.725 2.352,0 3.205,1.722 3.205,3.92 h -5.431 z m 4.522,-0.771 c -0.1,-1.358 -0.827,-2.38 -2.283,-2.38 -1.371,0 -2.099,1.148 -2.212,2.38 h 4.495 z m -0.357,-62.012 c 1.246,0.14 2.673,-0.364 2.673,-1.82 0,-1.121 -1.007,-1.75 -2.142,-1.75 -1.232,0 -1.986,0.644 -2.112,1.764 h -0.98 c 0,-1.638 1.456,-2.604 2.967,-2.604 1.639,0 3.247,0.77 3.247,2.646 0,1.176 -0.896,1.96 -1.973,2.185 v 0.028 c 1.232,0.266 2.128,1.148 2.128,2.451 0,1.82 -1.695,2.801 -3.318,2.801 -1.708,0 -3.135,-0.924 -3.191,-2.773 h 0.979 c 0.016,1.205 1.079,1.933 2.199,1.933 1.287,0 2.352,-0.686 2.352,-2.073 0,-1.554 -1.498,-2.1 -2.828,-1.904 v -0.884 z m 5.018,66.101 h -0.841 v -5.447 c 0,-0.546 -0.042,-1.106 -0.069,-1.582 h 0.868 l 0.042,1.036 0.027,0.028 c 0.49,-0.868 1.288,-1.274 2.198,-1.274 2.295,0 2.477,2.031 2.477,2.843 v 4.397 h -0.84 v -4.537 c 0,-1.218 -0.699,-1.932 -1.848,-1.932 -1.385,0 -2.015,1.162 -2.015,2.422 v 4.046 z m 1.279,-56.267 c 0.645,-1.652 1.231,-3.809 1.231,-5.728 0,-1.806 -0.488,-3.837 -1.231,-5.727 h 0.701 c 0.713,1.82 1.511,3.753 1.511,5.727 0,2.017 -0.812,3.893 -1.496,5.728 h -0.716 z m 7.315,50.008 h -1.399 v -0.77 h 1.399 v -1.499 l 0.84,-0.364 v 1.863 h 1.596 v 0.77 h -1.596 v 4.705 c -0.014,0.644 0.322,0.994 0.966,0.994 0.252,0 0.504,-0.014 0.729,-0.084 v 0.728 c -0.267,0.07 -0.575,0.126 -0.854,0.126 -1.777,0 -1.68,-1.134 -1.68,-2.086 v -4.383 z"
         id="SVGID_3_"
         inkscape:connector-curvature="0" /></defs><clipPath
       id="clipPath3171"><use
         id="use3173"
         overflow="visible"
         xlink:href="#SVGID_3_"
         style="overflow:visible"
         x="0"
         y="0"
         width="744.09448"
         height="1052.3622" /></clipPath></defs><sodipodi:namedview
     pagecolor="#ffffff"
     bordercolor="#666666"
     borderopacity="1"
     objecttolerance="10"
     gridtolerance="10"
     guidetolerance="10"
     inkscape:pageopacity="0"
     inkscape:pageshadow="2"
     inkscape:window-width="1920"
     inkscape:window-height="1028"
     id="namedview255"
     showgrid="false"
     inkscape:zoom="2.2425732"
     inkscape:cx="-30.414396"
     inkscape:cy="120.7102"
     inkscape:window-x="0"
     inkscape:window-y="0"
     inkscape:window-maximized="1"
     inkscape:current-layer="ubkSilo"
     showguides="false" /><path
     inkscape:connector-curvature="0"
     id="path4015-0-6"
     d="m 100.55412,105.11693 0,-14.04636 55.9625,0 55.9625,0 0,14.04636 0,14.04637 -55.9625,0 -55.9625,0 0,-14.04637 z"
     style="fill:#f1f30d;fill-opacity:1" /><path
     inkscape:connector-curvature="0"
     id="path4015-0"
     d="m 100.10821,60.51205 0,-14.04636 55.9625,0 55.9625,0 0,14.04636 0,14.04637 -55.9625,0 -55.9625,0 0,-14.04637 z"
     style="fill:#f1f30d;fill-opacity:1" /><path
     inkscape:connector-curvature="0"
     id="path4015"
     d="m 99.98886,17.32914 0,-9.5872 55.9625,0 55.9625,0 0,9.5872 0,9.5872 -55.9625,0 -55.9625,0 0,-9.5872 z"
     style="fill:#000008;fill-opacity:1" /><g
     transform="matrix(0.77286489,0,0,0.83765128,-407.20449,-213.03531)"
     id="g21"
     clip-path="url(#SVGID_4_)"><defs
       id="defs23"><rect
         height="837"
         width="514.99902"
         id="SVGID_5_"
         x="0"
         y="0" /></defs><clipPath
       id="clipPath3178"><use
         id="use3180"
         overflow="visible"
         xlink:href="#SVGID_5_"
         style="overflow:visible"
         x="0"
         y="0"
         width="744.09448"
         height="1052.3622" /></clipPath></g><g
     id="g67"
     transform="matrix(0.67969021,0,0,0.74231937,-86.238461,-149.11077)"><defs
       id="defs69"><path
         d="m 278.096,493.682 v -2.605 c 2.829,-3.104 11.189,-12.72 11.189,-17.471 0,-3.104 -2.012,-4.713 -4.369,-4.713 -2.608,0 -4.4,2.184 -4.4,5.287 h -2.2 c 0,-4.674 2.892,-7.586 6.664,-7.586 3.489,0 6.507,2.261 6.507,6.858 0,6.207 -7.576,13.984 -10.939,17.931 h 11.222 v 2.299 h -13.674 z m 21.574,0 v -2.605 c 2.829,-3.104 11.19,-12.72 11.19,-17.471 0,-3.104 -2.012,-4.713 -4.369,-4.713 -2.609,0 -4.4,2.184 -4.4,5.287 h -2.201 c 0,-4.675 2.893,-7.586 6.664,-7.586 3.489,0 6.507,2.26 6.507,6.858 0,6.207 -7.575,13.984 -10.938,17.931 h 11.222 v 2.299 H 299.67 z m 23.114,0 v -3.295 h 2.515 v 3.295 h -2.515 z m 12.605,-22.337 c 1.854,-0.92 3.583,-2.452 4.997,-4.177 h 1.949 v 26.514 h -2.043 V 469.85 c -1.446,1.687 -3.144,2.951 -4.903,3.985 v -2.49 z m 32.005,2.03 h -2.2 c -0.095,-2.759 -1.918,-4.482 -4.149,-4.482 -5.218,0 -5.815,6.935 -5.815,11.916 h 0.062 c 0.975,-2.912 3.175,-4.33 5.722,-4.33 4.306,0 6.663,3.717 6.663,8.774 0,5.057 -2.577,9.004 -6.853,9.004 -6.066,0 -7.795,-6.131 -7.795,-12.491 0,-6.781 0.88,-15.172 7.921,-15.172 3.551,0 6.38,2.183 6.444,6.781 z m -11.789,12.223 c 0,3.333 2.075,6.36 4.904,6.36 3.206,0 4.966,-2.797 4.966,-6.552 0,-3.487 -1.32,-6.82 -4.558,-6.82 -3.457,0 -5.312,3.065 -5.312,7.012 z m 21.952,-8.315 0.063,0.076 c 1.1,-2.375 2.892,-3.486 4.935,-3.486 2.483,0 4.433,1.686 5.124,4.215 1.163,-2.261 2.986,-4.215 5.438,-4.215 5.155,0 5.563,5.556 5.563,7.778 v 12.03 h -1.886 v -12.414 c 0,-3.333 -1.571,-5.287 -4.149,-5.287 -3.111,0 -4.526,3.18 -4.526,6.628 v 11.073 h -1.886 v -12.414 c 0,-3.333 -1.571,-5.287 -4.149,-5.287 -3.111,0 -4.526,3.18 -4.526,6.628 v 11.073 h -1.886 v -14.904 c 0,-1.494 -0.094,-3.026 -0.157,-4.329 h 1.949 l 0.093,2.835 z"
         id="SVGID_15_"
         inkscape:connector-curvature="0" /></defs><clipPath
       id="clipPath3212"><use
         id="use3214"
         overflow="visible"
         xlink:href="#SVGID_15_"
         style="overflow:visible"
         x="0"
         y="0"
         width="744.09448"
         height="1052.3622" /></clipPath><g
       id="g75"
       clip-path="url(#SVGID_16_)"><defs
         id="defs77"><rect
           height="837"
           width="515"
           id="SVGID_17_"
           x="0"
           y="0" /></defs><clipPath
         id="clipPath3219"><use
           id="use3221"
           overflow="visible"
           xlink:href="#SVGID_17_"
           style="overflow:visible"
           x="0"
           y="0"
           width="744.09448"
           height="1052.3622" /></clipPath></g></g><g
     id="g85"
     transform="matrix(0.67969021,0,0,0.74231937,-86.238461,-159.11077)"><defs
       id="defs87"><path
         d="m 277.216,419.387 c 1.08,-0.439 2.087,-1.171 2.911,-1.995 h 1.135 v 12.667 h -1.189 v -11.386 c -0.843,0.805 -1.831,1.41 -2.856,1.904 v -1.19 z m 10.201,-1.995 h 6.976 v 1.098 h -5.841 l -0.201,4.521 0.037,0.036 c 0.714,-0.823 1.647,-1.336 2.782,-1.336 2.38,0 3.863,1.959 3.863,4.229 0,2.435 -1.557,4.394 -4.064,4.394 -2.142,0 -4.027,-0.988 -4.101,-3.387 h 1.281 c 0.073,1.52 1.245,2.288 2.691,2.288 1.978,0 2.911,-1.52 2.911,-3.35 0,-1.831 -0.934,-3.075 -2.838,-3.075 -1.208,0 -2.307,0.731 -2.563,1.922 h -1.227 l 0.294,-7.34 z m 19.169,6.334 c 0,3.222 -0.751,6.608 -4.211,6.608 -3.461,0 -4.211,-3.387 -4.211,-6.608 0,-3.221 0.75,-6.608 4.211,-6.608 3.46,-10e-4 4.211,3.386 4.211,6.608 z m -7.141,0 c 0,1.886 0.238,5.51 2.93,5.51 2.692,0 2.93,-3.624 2.93,-5.51 0,-1.886 -0.238,-5.51 -2.93,-5.51 -2.692,0 -2.93,3.624 -2.93,5.51 z m 18.583,-3.369 h -1.281 c -0.055,-1.318 -1.117,-2.142 -2.417,-2.142 -3.039,0 -3.387,3.313 -3.387,5.692 h 0.036 c 0.568,-1.391 1.85,-2.068 3.332,-2.068 2.509,0 3.882,1.775 3.882,4.192 0,2.416 -1.501,4.302 -3.991,4.302 -3.533,0 -4.54,-2.93 -4.54,-5.968 0,-3.24 0.512,-7.249 4.613,-7.249 2.069,0.001 3.717,1.045 3.753,3.241 z m -6.865,5.839 c 0,1.593 1.208,3.039 2.856,3.039 1.867,0 2.893,-1.336 2.893,-3.13 0,-1.666 -0.77,-3.259 -2.655,-3.259 -2.014,10e-4 -3.094,1.466 -3.094,3.35 z m 12.779,-2.745 c -1.483,-0.146 -2.582,-1.428 -2.582,-2.929 0,-2.344 2.087,-3.405 4.119,-3.405 2.032,0 4.12,1.062 4.12,3.405 0,1.537 -1.099,2.599 -2.545,2.929 v -0.019 0.036 c 1.684,0.439 2.728,1.465 2.728,3.148 0,2.563 -2.179,3.717 -4.303,3.717 -2.123,0 -4.302,-1.153 -4.302,-3.717 -0.019,-1.629 1.116,-2.782 2.765,-3.13 v -0.035 z m 4.559,3.166 c 0,-1.812 -1.446,-2.617 -3.021,-2.617 -1.574,0 -3.021,0.806 -3.021,2.617 0,1.812 1.446,2.618 3.021,2.618 1.575,0 3.021,-0.805 3.021,-2.618 z m -5.95,-6.095 c 0,1.574 1.245,2.379 2.929,2.379 1.685,0 2.93,-0.805 2.93,-2.379 0,-1.703 -1.52,-2.398 -2.93,-2.398 -1.41,0 -2.929,0.696 -2.929,2.398 z m 11.204,9.537 v -1.574 h 1.465 v 1.574 h -1.465 z m 8.202,-6.608 c -1.482,-0.146 -2.581,-1.429 -2.581,-2.93 0,-2.343 2.087,-3.404 4.119,-3.404 2.032,0 4.119,1.062 4.119,3.404 0,1.538 -1.099,2.6 -2.545,2.93 v -0.019 0.036 c 1.685,0.439 2.729,1.465 2.729,3.148 0,2.563 -2.179,3.717 -4.303,3.717 -2.124,0 -4.303,-1.153 -4.303,-3.717 -0.019,-1.629 1.117,-2.782 2.765,-3.13 v -0.035 z m 4.559,3.166 c 0,-1.812 -1.446,-2.617 -3.021,-2.617 -1.575,0 -3.021,0.806 -3.021,2.617 0,1.812 1.446,2.618 3.021,2.618 1.575,0 3.021,-0.805 3.021,-2.618 z m -5.951,-6.096 c 0,1.574 1.245,2.38 2.93,2.38 1.685,0 2.929,-0.806 2.929,-2.38 0,-1.702 -1.519,-2.397 -2.929,-2.397 -1.41,0 -2.93,0.695 -2.93,2.397 z m 18.694,3.205 c 0,3.222 -0.751,6.607 -4.211,6.607 -3.461,0 -4.211,-3.386 -4.211,-6.607 0,-3.221 0.75,-6.608 4.211,-6.608 3.46,-10e-4 4.211,3.386 4.211,6.608 z m -7.141,0 c 0,1.885 0.238,5.51 2.93,5.51 2.692,0 2.929,-3.625 2.929,-5.51 0,-1.886 -0.237,-5.51 -2.929,-5.51 -2.692,0 -2.93,3.624 -2.93,5.51 z m 11.333,6.333 v -13.216 h 1.172 l 0.018,5.821 5.914,-5.821 h 1.501 l -6.097,5.967 6.646,7.249 h -1.63 l -6.335,-6.9 -0.018,6.9 h -1.171 z m 18.473,-9.19 h 1.136 c -0.037,0.623 -0.092,1.355 -0.092,2.069 v 5.51 c 0,1.83 0.092,3.752 -1.94,4.704 -0.732,0.348 -1.227,0.421 -2.088,0.421 -1.666,0 -3.643,-0.567 -3.643,-2.471 h 1.189 c 0.128,1.098 1.429,1.464 2.6,1.464 1.429,0 2.747,-1.007 2.783,-2.544 v -1.721 h -0.036 c -0.531,1.08 -1.795,1.721 -2.984,1.721 -2.765,0 -3.955,-2.105 -3.955,-4.632 0,-2.489 1.117,-4.796 3.918,-4.796 1.337,0 2.289,0.641 3.021,1.703 l 0.036,-0.073 0.055,-1.355 z m -3.002,0.733 c -1.996,0 -2.838,2.014 -2.838,3.698 0,1.684 0.86,3.716 2.874,3.716 2.105,0 2.911,-1.959 2.911,-3.753 0,-1.757 -0.971,-3.661 -2.947,-3.661 z"
         id="SVGID_19_"
         inkscape:connector-curvature="0" /></defs><clipPath
       id="clipPath3227"><use
         id="use3229"
         overflow="visible"
         xlink:href="#SVGID_19_"
         style="overflow:visible"
         x="0"
         y="0"
         width="744.09448"
         height="1052.3622" /></clipPath><g
       id="g93"
       clip-path="url(#SVGID_20_)"><defs
         id="defs95"><rect
           height="837"
           width="514.99902"
           id="SVGID_21_"
           x="0"
           y="0" /></defs><clipPath
         id="clipPath3234"><use
           id="use3236"
           overflow="visible"
           xlink:href="#SVGID_21_"
           style="overflow:visible"
           x="0"
           y="0"
           width="744.09448"
           height="1052.3622" /></clipPath></g></g><g
     id="g103"
     transform="matrix(0.67969021,0,0,0.74231937,-86.238461,-163.11077)"><defs
       id="defs105"><path
         d="m 281.623,299.854 c -2.546,-0.307 -4.433,-2.988 -4.433,-6.13 0,-4.904 3.584,-7.126 7.073,-7.126 3.488,0 7.072,2.222 7.072,7.126 0,3.219 -1.886,5.441 -4.369,6.13 v -0.038 0.077 c 2.892,0.919 4.684,3.065 4.684,6.59 0,5.364 -3.741,7.778 -7.387,7.778 -3.646,0 -7.387,-2.414 -7.387,-7.778 -0.032,-3.41 1.917,-5.824 4.746,-6.552 v -0.077 z m 7.827,6.628 c 0,-3.793 -2.483,-5.479 -5.187,-5.479 -2.704,0 -5.187,1.686 -5.187,5.479 0,3.793 2.482,5.479 5.187,5.479 2.704,0 5.187,-1.686 5.187,-5.479 z m -10.216,-12.759 c 0,3.295 2.137,4.981 5.029,4.981 2.892,0 5.029,-1.686 5.029,-4.981 0,-3.563 -2.609,-5.019 -5.029,-5.019 -2.42,0 -5.029,1.456 -5.029,5.019 z m 19.437,19.962 v -2.605 c 2.829,-3.104 11.19,-12.721 11.19,-17.472 0,-3.104 -2.012,-4.713 -4.369,-4.713 -2.609,0 -4.4,2.184 -4.4,5.288 h -2.201 c 0,-4.674 2.893,-7.586 6.664,-7.586 3.489,0 6.507,2.261 6.507,6.858 0,6.207 -7.575,13.985 -10.938,17.931 h 11.222 v 2.299 h -13.675 z m 23.114,0 v -3.295 h 2.515 v 3.295 h -2.515 z m 10.529,0 v -2.605 c 2.829,-3.104 11.19,-12.72 11.19,-17.471 0,-3.104 -2.012,-4.713 -4.369,-4.713 -2.609,0 -4.4,2.184 -4.4,5.287 h -2.2 c 0,-4.674 2.892,-7.586 6.663,-7.586 3.489,0 6.507,2.26 6.507,6.858 0,6.207 -7.575,13.985 -10.938,17.931 h 11.222 v 2.299 h -13.675 z m 33.708,-19.847 c 0,3.793 -1.823,7.242 -4.998,7.242 -3.175,0 -4.998,-3.449 -4.998,-7.242 0,-3.793 1.823,-7.241 4.998,-7.241 3.175,0 4.998,3.448 4.998,7.241 z m -8.266,0 c 0,2.491 0.816,5.518 3.269,5.518 2.453,0 3.27,-3.027 3.27,-5.518 0,-2.49 -0.817,-5.517 -3.27,-5.517 -2.453,0 -3.269,3.027 -3.269,5.517 z m 16.91,-7.241 -12.259,27.088 h -1.823 l 12.26,-27.088 h 1.822 z m 5.375,20.421 c 0,3.793 -1.822,7.242 -4.997,7.242 -3.175,0 -4.998,-3.448 -4.998,-7.242 0,-3.793 1.823,-7.241 4.998,-7.241 3.175,0 4.997,3.448 4.997,7.241 z m -8.267,0 c 0,2.491 0.817,5.518 3.27,5.518 2.451,0 3.269,-3.027 3.269,-5.518 0,-2.49 -0.817,-5.517 -3.269,-5.517 -2.452,0 -3.27,3.027 -3.27,5.517 z"
         id="SVGID_23_"
         inkscape:connector-curvature="0" /></defs><clipPath
       id="clipPath3242"><use
         id="use3244"
         overflow="visible"
         xlink:href="#SVGID_23_"
         style="overflow:visible"
         x="0"
         y="0"
         width="744.09448"
         height="1052.3622" /></clipPath><g
       id="g111"
       clip-path="url(#SVGID_24_)"><defs
         id="defs113"><rect
           height="837"
           width="515"
           id="SVGID_25_"
           x="0"
           y="0" /></defs><clipPath
         id="clipPath3249"><use
           id="use3251"
           overflow="visible"
           xlink:href="#SVGID_25_"
           style="overflow:visible"
           x="0"
           y="0"
           width="744.09448"
           height="1052.3622" /></clipPath></g></g><g
     id="g121"
     transform="matrix(0.67969021,0,0,0.74231937,-86.238461,-161.11077)"><defs
       id="defs123"><path
         d="m 277.097,368.685 v -2.605 c 2.829,-3.104 11.19,-12.721 11.19,-17.472 0,-3.104 -2.012,-4.712 -4.369,-4.712 -2.609,0 -4.401,2.184 -4.401,5.287 h -2.2 c 0,-4.674 2.892,-7.586 6.664,-7.586 3.489,0 6.507,2.261 6.507,6.858 0,6.207 -7.575,13.985 -10.939,17.932 h 11.222 v 2.299 h -13.674 z m 35.782,-20.308 h -2.2 c -0.095,-2.758 -1.918,-4.483 -4.149,-4.483 -5.218,0 -5.815,6.935 -5.815,11.916 h 0.063 c 0.974,-2.912 3.174,-4.33 5.721,-4.33 4.306,0 6.663,3.717 6.663,8.774 0,5.057 -2.577,9.004 -6.852,9.004 -6.067,0 -7.796,-6.13 -7.796,-12.491 0,-6.782 0.88,-15.173 7.921,-15.173 3.551,0.002 6.38,2.186 6.444,6.783 z M 301.091,360.6 c 0,3.333 2.075,6.36 4.904,6.36 3.206,0 4.966,-2.797 4.966,-6.552 0,-3.487 -1.32,-6.82 -4.558,-6.82 -3.458,0 -5.312,3.066 -5.312,7.012 z m 20.694,8.085 v -3.295 h 2.515 v 3.295 h -2.515 z m 12.636,-6.514 c 0.094,3.487 2.043,4.789 4.715,4.789 4.967,0 5.501,-8.506 5.501,-12.529 h -0.063 c -1.068,2.567 -3.237,4.062 -5.752,4.062 -3.929,0 -6.664,-3.487 -6.664,-8.238 0,-5.058 2.735,-8.659 6.947,-8.659 6.317,0 7.732,6.514 7.732,13.104 0,7.127 -1.32,14.56 -8.267,14.56 -3.867,0 -6.067,-2.874 -6.35,-7.088 h 2.201 z m -0.064,-11.725 c 0,3.487 1.792,5.939 4.652,5.939 3.018,0 5.25,-2.605 5.25,-6.284 0,-3.64 -2.138,-6.207 -5.124,-6.207 -3.237,10e-4 -4.778,2.875 -4.778,6.552 z m 33.74,-2.069 h -2.2 c -0.095,-2.759 -1.917,-4.483 -4.149,-4.483 -5.218,0 -5.814,6.935 -5.814,11.916 h 0.062 c 0.975,-2.912 3.175,-4.33 5.721,-4.33 4.307,0 6.664,3.716 6.664,8.774 0,5.058 -2.578,9.004 -6.853,9.004 -6.066,0 -7.796,-6.13 -7.796,-12.49 0,-6.782 0.881,-15.173 7.922,-15.173 3.551,10e-4 6.38,2.185 6.443,6.782 z M 356.31,360.6 c 0,3.333 2.074,6.36 4.903,6.36 3.206,0 4.967,-2.797 4.967,-6.552 0,-3.486 -1.32,-6.82 -4.558,-6.82 -3.458,0 -5.312,3.065 -5.312,7.012 z m 21.951,-8.314 0.063,0.077 c 1.1,-2.375 2.892,-3.487 4.935,-3.487 2.483,0 4.433,1.686 5.124,4.215 1.163,-2.261 2.986,-4.215 5.438,-4.215 5.155,0 5.563,5.556 5.563,7.778 v 12.031 h -1.886 v -12.414 c 0,-3.333 -1.571,-5.288 -4.149,-5.288 -3.111,0 -4.526,3.18 -4.526,6.628 v 11.073 h -1.886 V 356.27 c 0,-3.333 -1.571,-5.288 -4.149,-5.288 -3.111,0 -4.526,3.18 -4.526,6.628 v 11.073 h -1.886 V 353.78 c 0,-1.494 -0.094,-3.027 -0.157,-4.33 h 1.949 l 0.093,2.836 z"
         id="SVGID_27_"
         inkscape:connector-curvature="0" /></defs><clipPath
       id="clipPath3257"><use
         id="use3259"
         overflow="visible"
         xlink:href="#SVGID_27_"
         style="overflow:visible"
         x="0"
         y="0"
         width="744.09448"
         height="1052.3622" /></clipPath><g
       id="g129"
       clip-path="url(#SVGID_28_)"><defs
         id="defs131"><rect
           height="837"
           width="515"
           id="SVGID_29_"
           x="0"
           y="0" /></defs><clipPath
         id="clipPath3264"><use
           id="use3266"
           overflow="visible"
           xlink:href="#SVGID_29_"
           style="overflow:visible"
           x="0"
           y="0"
           width="744.09448"
           height="1052.3622" /></clipPath></g><text
       transform="matrix(1.4712585,0,0,1.3471291,126.87906,217.037)"
       sodipodi:linespacing="125%"
       id="text3231"
       y="108.45468"
       x="162.31354"
       style="font-size:40px;font-style:normal;font-weight:normal;line-height:125%;letter-spacing:0px;word-spacing:0px;fill:#000000;fill-opacity:1;stroke:none;font-family:Sans"
       xml:space="preserve"><tspan
         y="108.45468"
         x="162.31354"
         id="tspan3233"
         sodipodi:role="line" /></text>
</g><text
     transform="scale(1.0027175,0.99728986)"
     sodipodi:linespacing="125%"
     id="ubkName"
     y="22.813643"
     x="103.76925"
     style="font-size:14.68812752px;font-style:normal;font-weight:normal;line-height:125%;letter-spacing:0px;word-spacing:0px;fill:#ffffff;fill-opacity:1;stroke:none;font-family:Sans"
     xml:space="preserve"><tspan
       style="font-style:normal;font-variant:normal;font-weight:normal;font-stretch:normal;font-family:Ubuntu;-inkscape-font-specification:Ubuntu"
       y="22.813643"
       x="103.76925"
       id="ubkName_span"
       sodipodi:role="line">#Silo1</tspan></text>
<text
     transform="scale(1.0027175,0.99728986)"
     sodipodi:linespacing="125%"
     id="text3235-0"
     y="42.566326"
     x="100.73901"
     style="font-size:14.68812752px;font-style:normal;font-weight:normal;line-height:125%;letter-spacing:0px;word-spacing:0px;fill:#ffffff;fill-opacity:1;stroke:none;font-family:Sans"
     xml:space="preserve"><tspan
       style="font-size:12px;font-style:normal;font-variant:normal;font-weight:normal;font-stretch:normal;fill:#000000;font-family:Ubuntu;-inkscape-font-specification:Ubuntu"
       y="42.566326"
       x="100.73901"
       id="tspan3237-5"
       sodipodi:role="line">Available feed</tspan></text>
<text
     transform="scale(1.0027175,0.99728986)"
     sodipodi:linespacing="125%"
     id="text3235-0-1"
     y="87.679672"
     x="99.353477"
     style="font-size:14.68812752px;font-style:normal;font-weight:normal;line-height:125%;letter-spacing:0px;word-spacing:0px;fill:#ffffff;fill-opacity:1;stroke:none;font-family:Sans"
     xml:space="preserve"><tspan
       style="font-size:12px;font-style:normal;font-variant:normal;font-weight:normal;font-stretch:normal;fill:#000000;font-family:Ubuntu;-inkscape-font-specification:Ubuntu"
       y="87.679672"
       x="99.353477"
       id="tspan3237-5-8"
       sodipodi:role="line">Silo capacity</tspan></text>
<text
     transform="scale(1.0027175,0.99728986)"
     sodipodi:linespacing="125%"
     id="text3235-0-1-0"
     y="132.88069"
     x="99.411003"
     style="font-size:14.68812752px;font-style:normal;font-weight:normal;line-height:125%;letter-spacing:0px;word-spacing:0px;fill:#ffffff;fill-opacity:1;stroke:none;font-family:Sans"
     xml:space="preserve"><tspan
       style="font-size:12.00000003000000071px;font-style:normal;font-variant:normal;font-weight:normal;font-stretch:normal;fill:#000000;font-family:Ubuntu;-inkscape-font-specification:Ubuntu"
       y="132.88069"
       x="99.411003"
       id="tspan3237-5-8-2"
       sodipodi:role="line">Remaining content</tspan><tspan
       id="tspan4085"
       style="font-style:normal;font-variant:normal;font-weight:normal;font-stretch:normal;fill:#000000;font-family:Ubuntu;-inkscape-font-specification:Ubuntu;font-size:12.00000003000000071px"
       y="150.23291"
       x="99.411003"
       sodipodi:role="line">weight</tspan></text>
<text
     transform="scale(1.0027175,0.99728986)"
     sodipodi:linespacing="125%"
     id="text3235-0-1-0-0"
     y="196.68172"
     x="99.613274"
     style="font-size:14.68812752px;font-style:normal;font-weight:normal;line-height:125%;letter-spacing:0px;word-spacing:0px;fill:#ffffff;fill-opacity:1;stroke:none;font-family:Sans"
     xml:space="preserve"><tspan
       id="tspan4085-3"
       style="font-size:12px;font-style:normal;font-variant:normal;font-weight:normal;font-stretch:normal;fill:#000000;font-family:Ubuntu;-inkscape-font-specification:Ubuntu"
       y="196.68172"
       x="99.613274"
       sodipodi:role="line">Volume available</tspan></text>
<path
     inkscape:connector-curvature="0"
     id="path4015-0-0"
     d="m 100.77046,168.61364 0,-14.04636 55.9625,0 55.9625,0 0,14.04636 0,14.04637 -55.9625,0 -55.9625,0 0,-14.04637 z"
     style="fill:#f1f30d;fill-opacity:1" /><path
     inkscape:connector-curvature="0"
     id="path4015-0-7"
     d="m 100.32454,214.54303 0,-14.04636 55.9625,0 55.9625,0 0,14.04636 0,14.04637 -55.9625,0 -55.9625,0 0,-14.04637 z"
     style="fill:#f1f30d;fill-opacity:1" /><text
     transform="scale(1.0027175,0.99728986)"
     sodipodi:linespacing="125%"
     id="ubkAvailable"
     y="68.822586"
     x="106.10021"
     style="font-size:14.68812752px;font-style:normal;font-weight:normal;line-height:125%;letter-spacing:0px;word-spacing:0px;fill:#ffffff;fill-opacity:1;stroke:none;font-family:Sans"
     xml:space="preserve"><tspan
       style="font-size:22px;font-style:normal;font-variant:normal;font-weight:500;font-stretch:normal;fill:#56bbc7;fill-opacity:1;font-family:Ubuntu;-inkscape-font-specification:Ubuntu Medium"
       y="68.822586"
       x="106.10021"
       id="ubkAvailable_span"
       sodipodi:role="line">82%</tspan></text>
<text
     transform="scale(1.0027175,0.99728986)"
     sodipodi:linespacing="125%"
     id="ubkCapacity"
     y="113.18068"
     x="104.98025"
     style="font-size:14.68812752px;font-style:normal;font-weight:normal;line-height:125%;letter-spacing:0px;word-spacing:0px;fill:#ffffff;fill-opacity:1;stroke:none;font-family:Sans"
     xml:space="preserve"><tspan
       style="font-size:22px;font-style:normal;font-variant:normal;font-weight:500;font-stretch:normal;fill:#56bbc7;fill-opacity:1;font-family:Ubuntu;-inkscape-font-specification:Ubuntu Medium"
       y="113.18068"
       x="104.98025"
       id="ubkCapacity_span"
       sodipodi:role="line">26.09m</tspan></text>
<text
     transform="scale(1.0027175,0.99728986)"
     sodipodi:linespacing="125%"
     id="ubkContent"
     y="177.52727"
     x="104.98022"
     style="font-size:14.68812752px;font-style:normal;font-weight:normal;line-height:125%;letter-spacing:0px;word-spacing:0px;fill:#ffffff;fill-opacity:1;stroke:none;font-family:Sans"
     xml:space="preserve"><tspan
       style="font-size:22px;font-style:normal;font-variant:normal;font-weight:500;font-stretch:normal;fill:#56bbc7;fill-opacity:1;font-family:Ubuntu;-inkscape-font-specification:Ubuntu Medium"
       y="177.52727"
       x="104.98022"
       id="ubkContent_span"
       sodipodi:role="line">154503Kg</tspan></text>
<text
     transform="scale(1.0027175,0.99728986)"
     sodipodi:linespacing="125%"
     id="ubkVolume"
     y="223.58144"
     x="104.53555"
     style="font-size:14.68812752px;font-style:normal;font-weight:normal;line-height:125%;letter-spacing:0px;word-spacing:0px;fill:#ffffff;fill-opacity:1;stroke:none;font-family:Sans"
     xml:space="preserve"><tspan
       style="font-size:22px;font-style:normal;font-variant:normal;font-weight:500;font-stretch:normal;fill:#56bbc7;fill-opacity:1;font-family:Ubuntu;-inkscape-font-specification:Ubuntu Medium"
       y="223.58144"
       x="104.53555"
       id="ubkVolume_span"
       sodipodi:role="line">22.16m</tspan></text>
<g
     id="g3"
     transform="translate(0,-601.89)"><polygon
       points="958.843,286.581 931.843,286.616 931.843,290.355 904.593,309.492 904.719,405.742 938.843,481.742 951.682,481.73 985.843,405.742 985.843,309.242 958.843,290.616 "
       id="polygon5"
       style="fill:#1d1d1b" /><rect
       x="899.51001"
       y="368.909"
       width="5.0830002"
       height="148.99899"
       id="rect7"
       style="fill:#1d1d1b" /><rect
       x="985.94098"
       y="368.909"
       width="5.0830002"
       height="148.99899"
       id="rect9"
       style="fill:#1d1d1b" /><polygon
       points="975.307,317.064 914.843,317.069 914.843,404.742 940.843,456.197 949.843,456.197 975.307,404.742 "
       id="polygon11"
       style="fill:#ffffff" /></g><g
     id="g13"
     transform="translate(0,-601.89)"><polygon
       points="1089.685,289.393 1062.685,289.428 1062.685,293.167 1035.435,312.304 1035.561,408.554 1069.685,484.554 1082.523,484.542 1116.685,408.554 1116.685,312.054 1089.685,293.428 "
       id="polygon15"
       style="fill:#1d1d1b" /><rect
       x="1030.3521"
       y="371.72101"
       width="5.0830002"
       height="149"
       id="rect17"
       style="fill:#1d1d1b" /><rect
       x="1116.783"
       y="371.72101"
       width="5.0830002"
       height="149"
       id="rect19"
       style="fill:#1d1d1b" /></g><g
     id="g173"
     transform="translate(-314.94104,-102.94211)"><polygon
       style="fill:#1d1d1b"
       id="polygon175"
       points="349.119,111.097 321.869,130.233 321.995,226.483 356.119,302.482 368.958,302.47 403.119,226.483 403.119,129.983 376.119,111.357 376.119,107.322 349.119,107.356 " /><rect
       style="fill:#1d1d1b"
       id="rect177"
       height="149"
       width="5.0830002"
       y="189.649"
       x="316.78601" /><rect
       style="fill:#1d1d1b"
       id="rect179"
       height="149"
       width="5.0830002"
       y="189.649"
       x="403.21799" /><polygon
       style="fill:#ffffff"
       id="polygon181"
       points="392.583,137.806 332.119,137.81 332.119,225.483 358.119,276.939 367.119,276.939 392.583,225.483 " /></g><polygon
     style="fill:#ffffff;stroke:#ffffff;stroke-miterlimit:10"
     id="polygon183"
     points="392.775,138.086 332.311,138.091 332.311,225.764 358.311,277.22 367.311,277.22 392.775,225.764 "
     stroke-miterlimit="10"
     transform="translate(-314.94104,-102.94211)" /><rect
     x="324.914"
     y="258.62299"
     clip-path="url(#SVGID_10_)"
     stroke-miterlimit="10"
     width="74"
     height="18.597"
     id="level1"
     style="fill:#df3214;stroke:#ffffff;stroke-miterlimit:10"
     transform="translate(-314.94104,-102.94211)"
     inkscape:label="#level1" /><rect
     x="324.914"
     y="238.493"
     clip-path="url(#SVGID_10_)"
     stroke-miterlimit="10"
     width="74"
     height="18.597"
     id="level2"
     style="fill:#f6aea0;stroke:#ffffff;stroke-miterlimit:10"
     transform="translate(-314.94104,-102.94211)" /><use
     xlink:href="#SVGID_9_"
     overflow="visible"
     stroke-miterlimit="10"
     id="use197"
     style="fill:none;stroke:#ffffff;stroke-miterlimit:10;overflow:visible"
     x="0"
     y="0"
     width="595.28003"
     height="841.89001"
     transform="translate(-314.94104,-102.94211)" /><g
     id="level3"><rect
       transform="matrix(0.98522186,0,0,1.0001264,-422.06553,-103.28871)"
       style="fill:#edd20f;stroke:#ffffff;stroke-miterlimit:10"
       id="rect247"
       height="18.597"
       width="74"
       stroke-miterlimit="10"
       clip-path="url(#SVGID_14_)"
       y="258.62299"
       x="439.08701" /><rect
       transform="matrix(0.98522186,0,0,1.0001264,-422.06553,-103.28871)"
       style="fill:#fce229;stroke:#ffffff;stroke-miterlimit:10"
       id="rect249"
       height="18.597"
       width="74"
       stroke-miterlimit="10"
       clip-path="url(#SVGID_14_)"
       y="238.493"
       x="439.08701" /><rect
       transform="matrix(0.98522186,0,0,1.0001264,-422.06553,-103.28871)"
       style="fill:#f9ea93;stroke:#ffffff;stroke-miterlimit:10"
       id="rect251"
       height="18.597"
       width="74"
       stroke-miterlimit="10"
       clip-path="url(#SVGID_14_)"
       y="218.362"
       x="439.08701" /></g><rect
     x="425.85501"
     y="432.83301"
     clip-path="url(#SVGID_8_)"
     stroke-miterlimit="10"
     width="74"
     height="18.598"
     id="level10"
     style="fill:#82b23e;stroke:#ffffff;stroke-miterlimit:10"
     transform="translate(-415.94109,-398.47316)" /><rect
     x="425.85501"
     y="553.617"
     clip-path="url(#SVGID_8_)"
     stroke-miterlimit="10"
     width="74"
     height="18.598"
     id="level4"
     style="fill:#82b23e;stroke:#ffffff;stroke-miterlimit:10"
     transform="translate(-415.94109,-398.47316)" /><rect
     x="425.85501"
     y="533.48798"
     clip-path="url(#SVGID_8_)"
     stroke-miterlimit="10"
     width="74"
     height="18.596001"
     id="level5"
     style="fill:#82b23e;stroke:#ffffff;stroke-miterlimit:10"
     transform="translate(-415.94109,-398.47316)" /><rect
     x="425.85501"
     y="513.35699"
     clip-path="url(#SVGID_8_)"
     stroke-miterlimit="10"
     width="74"
     height="18.596001"
     id="level6"
     style="fill:#82b23e;stroke:#ffffff;stroke-miterlimit:10"
     transform="translate(-416.38701,-397.80429)" /><rect
     x="425.85501"
     y="493.22601"
     clip-path="url(#SVGID_8_)"
     stroke-miterlimit="10"
     width="74"
     height="18.598"
     id="level7"
     style="fill:#82b23e;stroke:#ffffff;stroke-miterlimit:10"
     transform="translate(-415.94109,-398.47316)" /><rect
     x="425.85501"
     y="473.095"
     clip-path="url(#SVGID_8_)"
     stroke-miterlimit="10"
     width="74"
     height="18.598"
     id="level8"
     style="fill:#82b23e;stroke:#ffffff;stroke-miterlimit:10"
     transform="translate(-415.94109,-398.47316)" /><rect
     x="425.85501"
     y="452.96399"
     clip-path="url(#SVGID_8_)"
     stroke-miterlimit="10"
     width="74"
     height="18.598"
     id="level9"
     style="fill:#82b23e;stroke:#ffffff;stroke-miterlimit:10"
     transform="translate(-415.94109,-398.47316)" /><use
     xlink:href="#SVGID_7_"
     overflow="visible"
     stroke-miterlimit="10"
     id="use169"
     style="fill:none;stroke:#ffffff;stroke-miterlimit:10;overflow:visible"
     x="0"
     y="0"
     width="595.28003"
     height="841.89001"
     transform="translate(-415.94109,-398.47316)" />
	
	<svidget:params>
		<!-- data params -->
		<svidget:param name="deviceNumber" shortname="device" type="string" coerce="true" group="data" defValue="UBKD334F21E-3C23-11E5-8494-C3AD4A89321E" description="" onset="handleDataParamSet" />
		<svidget:param name="nameSilo" shortname="name" type="string"  coerce="true" group="data" defValue="Silo1" description="" onset="handleDataParamSet" />
		<svidget:param name="alcadaSilo" shortname="as" type="number" subtype="integer" coerce="true" group="data" defValue="578" description="" />
		<svidget:param name="diametreSilo" shortname="ds" type="number" subtype="integer" coerce="true" group="data" defvalue="340" description=""  />
		<svidget:param name="ConeSilo" shortname="cs" type="number" subtype="integer" coerce="true" group="data" defvalue="204" description=""  />
		<svidget:param name="OffsetDevice" shortname="od" type="number" subtype="integer" coerce="true" group="data" defvalue="68" description="" />
		<svidget:param name="Densitat" shortname="d"  type="number" subtype="integer" coerce="true" group="data" defvalue="680.0" description=""  />
		<svidget:param name="Updated" shortname="up"  type="number" subtype="integer" coerce="true" group="data" defvalue="680.0" description="" onset="handleUpdateParamSet" />
	</svidget:params>
	
    <script type="application/javascript" >
		<![CDATA[	
		
			/* Misc */
			function checkNull(item, backupItem) {
				return item != null ? item : backupItem;
			}

			// param variables
			var _device = 'UBKD334F21E-3C23-11E5-8494-C3AD4A89321E';
			var _name = 'Silo1';
			var _as = 578;
			var _ds = 340;
			var _cs = 204;
			var _od = 68;
			var _d = 680;
			var _loaded = false;
	
			/* Param Events */
			function loadParams() {
				var widget = svidget.$;
				_device = checkNull(widget.param("deviceNumber").value(), _device);
				_name = checkNull(widget.param("nameSilo").value(), _name);
				_as = checkNull(widget.param("alcadaSilo").value(), _as);
				console.log(_as);
				_ds = checkNull(widget.param("diametreSilo").value(), _ds);
				_cs = checkNull(widget.param("ConeSilo").value(), _cs);
				_od = checkNull(widget.param("OffsetDevice").value(), _od);
				_d = checkNull(widget.param("Densitat").value(), _d);
			}
		
		// this handler is invoked when params Update is set
		function handleUpdateParamSet(e) {
			if (!_loaded) return;
			console.log('handleLabelParamsSet');
			var widget = svidget.$;
			loadParams();
			
			/* This websocket sends homogenous messages in the form
	         * {timestamp: 1234567, analog: {percentage: 3.3, capacity: 2.3, weight: 20, volume: 20}}
	         * where timestamp is a Unix timestamp
	         */
	        json_ws(function(data) {
				// Access
				console.log('New data...');
				Snap("#ubkName").select("tspan").node.innerHTML = "#"+_name;			
				Snap("#ubkAvailable").select("tspan").node.innerHTML = data.analog["percentage"] + '%';					
				Snap("#ubkCapacity").select("tspan").node.innerHTML = data.analog["capacity"] + 'm&#179;';					
				Snap("#ubkContent").select("tspan").node.innerHTML = data.analog["weight"] +'Kg';					
				Snap("#ubkVolume").select("tspan").node.innerHTML = data.analog["volume"] + '0m&#179;';					

				updateSiloLevels(data.analog["percentage"]);
	        });										
		}
		
		
		function waitTillLoaded() {
			// this is temp hack to give chance for page to pass params, if no page then we are in standalone mode
			window.setTimeout(function () {
				if (svidget.$.populatedFromPage()) return;			
				}, 100);	
		}
						
		function updateSiloLevels( percent ) {		
			if (percent > 90) { 
			      Snap("#level10").attr("display", "");
			      Snap("#level9").attr("display", "");
			      Snap("#level8").attr("display", "");
			      Snap("#level7").attr("display", "");
			      Snap("#level6").attr("display", "");
			      Snap("#level5").attr("display", "");
			      Snap("#level4").attr("display", "");
			      Snap("#level3").attr("display", "none");
			      Snap("#level2").attr("display", "none");
			      Snap("#level1").attr("display", "none");			
			}
			else if (percent > 80) {
			      Snap("#level10").attr("display", "none");
			      Snap("#level9").attr("display", "");
			      Snap("#level8").attr("display", "");
			      Snap("#level7").attr("display", "");
			      Snap("#level6").attr("display", "");
			      Snap("#level5").attr("display", "");
			      Snap("#level4").attr("display", "");
			      Snap("#level3").attr("display", "none");
			      Snap("#level2").attr("display", "none");
			      Snap("#level1").attr("display", "none");			
			}
			else if (percent > 70) {
			      Snap("#level10").attr("display", "none");
			      Snap("#level9").attr("display", "none");
			      Snap("#level8").attr("display", "");
			      Snap("#level7").attr("display", "");
			      Snap("#level6").attr("display", "");
			      Snap("#level5").attr("display", "");
			      Snap("#level4").attr("display", "");
			      Snap("#level3").attr("display", "none");
			      Snap("#level2").attr("display", "none");
			      Snap("#level1").attr("display", "none");			
			}
			else if (percent > 60) { 
			      Snap("#level10").attr("display", "none");
			      Snap("#level9").attr("display", "none");
			      Snap("#level8").attr("display", "none");
			      Snap("#level7").attr("display", "");
			      Snap("#level6").attr("display", "");
			      Snap("#level5").attr("display", "");
			      Snap("#level4").attr("display", "");
			      Snap("#level3").attr("display", "none");
			      Snap("#level2").attr("display", "none");
			      Snap("#level1").attr("display", "none");			
			}
			else if (percent > 50) { 
			      Snap("#level10").attr("display", "none");
			      Snap("#level9").attr("display", "none");
			      Snap("#level8").attr("display", "none");
			      Snap("#level7").attr("display", "none");
			      Snap("#level6").attr("display", "");
			      Snap("#level5").attr("display", "");
			      Snap("#level4").attr("display", "");
			      Snap("#level3").attr("display", "none");
			      Snap("#level2").attr("display", "none");
			      Snap("#level1").attr("display", "none");				
			}
			else if (percent > 40) { 
			      Snap("#level10").attr("display", "none");
			      Snap("#level9").attr("display", "none");
			      Snap("#level8").attr("display", "none");
			      Snap("#level7").attr("display", "none");
			      Snap("#level6").attr("display", "none");
			      Snap("#level5").attr("display", "");
			      Snap("#level4").attr("display", "");
			      Snap("#level3").attr("display", "none");
			      Snap("#level2").attr("display", "none");
			      Snap("#level1").attr("display", "none");				
			}
			else if (percent > 30) { 
			      Snap("#level10").attr("display", "none");
			      Snap("#level9").attr("display", "none");
			      Snap("#level8").attr("display", "none");
			      Snap("#level7").attr("display", "none");
			      Snap("#level6").attr("display", "none");
			      Snap("#level5").attr("display", "none");
			      Snap("#level4").attr("display", "");
			      Snap("#level3").attr("display", "none");
			      Snap("#level2").attr("display", "none");
			      Snap("#level1").attr("display", "none");				
			}
			else if (percent > 20) { 
			      Snap("#level10").attr("display", "none");
			      Snap("#level9").attr("display", "none");
			      Snap("#level8").attr("display", "none");
			      Snap("#level7").attr("display", "none");
			      Snap("#level6").attr("display", "none");
			      Snap("#level5").attr("display", "none");
			      Snap("#level4").attr("display", "none");
			      Snap("#level3").attr("display", "");
			      Snap("#level2").attr("display", "none");				
			      Snap("#level1").attr("display", "none");				
			}
			else if (percent > 10) { 
			      Snap("#level10").attr("display", "none");
			      Snap("#level9").attr("display", "none");
			      Snap("#level8").attr("display", "none");
			      Snap("#level7").attr("display", "none");
			      Snap("#level6").attr("display", "none");
			      Snap("#level5").attr("display", "none");
			      Snap("#level4").attr("display", "none");
			      Snap("#level3").attr("display", "none");
			      Snap("#level2").attr("display", "");			
			      Snap("#level1").attr("display", "");			
			}
			else if (percent > 5) { 
			      Snap("#level10").attr("display", "none");
			      Snap("#level9").attr("display", "none");
			      Snap("#level8").attr("display", "none");
			      Snap("#level7").attr("display", "none");
			      Snap("#level6").attr("display", "none");
			      Snap("#level5").attr("display", "none");
			      Snap("#level4").attr("display", "none");
			      Snap("#level3").attr("display", "none");
			      Snap("#level2").attr("display", "none");
			      Snap("#level1").attr("display", "");		
			}
			else { 
			      Snap("#level10").attr("display", "none");
			      Snap("#level9").attr("display", "none");
			      Snap("#level8").attr("display", "none");
			      Snap("#level7").attr("display", "none");
			      Snap("#level6").attr("display", "none");
			      Snap("#level5").attr("display", "none");
			      Snap("#level4").attr("display", "none");
			      Snap("#level3").attr("display", "none");
			      Snap("#level2").attr("display", "none");
			      Snap("#level1").attr("display", "none");
			}
		}
	
			/* Loading */
			function init() {
				console.log('init');
				waitTillLoaded();
				_loaded = true;
			}	
			window.addEventListener('load', init, false);	
			
			/* Connect to backend and open websocked */
	    	function json_ws( on_msg ) {
					console.log('Connecting...');
			        if (!("WebSocket" in window)) {
			            alert("Use a browser supporting websockets");
			        }
				  console.log("ws://localhost:8081/ws?device="+_device+"&as="+_as+"&ds="+_ds+"&cs="+_cs+"&od="+_od+"&d="+_d);
					var conn = new WebSocket("ws://localhost:8081/ws?device="+_device+"&as="+_as+"&ds="+_ds+"&cs="+_cs+"&od="+_od+"&d="+_d);
					//var conn = new WebSocket("ws://localhost:8081/ws?device=UBKD334F21E-3C23-11E5-8494-C3AD4A89321E&as=578&ds=340&cs=204&od=68&d=680.0");
					
			              conn.onclose = function(evt) {
								console.log('Connection closed.');
//			                  document.getElementById("fileData").textContent = 'Connection closed';
			              }
			
			              conn.onmessage = function(evt) {		 					
						try {
							data = JSON.parse(evt.data);
						}
			            catch (SyntaxError) {
			                console.log("Invalid data: " + evt.data);
			                return;
			            }
			            if (data)
			                on_msg(data);						
			              }
				console.log('Connected.');
				window.onbeforeunload = function() {
			        			 conn.onclose = function() {};
			        			 conn.close();
				}
			}			
			
		]]>
	</script>	
		
	</svg>